{
	"asset":{
		"generator":"Khronos glTF Blender I/O v4.2.57",
		"version":"2.0"
	},
	"scene":0,
	"scenes":[
		{
			"extras":{
				"vr_landmarks":[
					{
						"type":0,
						"base_scale":1.0
					}
				],
				"BS13ExtensionProperties":{}
			},
			"name":"Scene",
			"nodes":[
				0
			]
		}
	],
	"nodes":[
		{
			"mesh":0,
			"name":"Cylinder"
		}
	],
	"materials":[
		{
			"doubleSided":true,
			"extras":{
				"bs13_material_graph":{
					"graph":[
						{
							"type":"BSDF_PRINCIPLED",
							"name":"Principled_BSDF",
							"inputs":[
								{
									"name":"Base Color",
									"enabled":true,
									"hide":false,
									"type":"RGBA",
									"is_linked":false,
									"from_socket":null,
									"default_value":[
										0.413099080324173,
										0.413099080324173,
										0.413099080324173,
										1.0
									],
									"index":0
								},
								{
									"name":"Metallic",
									"enabled":true,
									"hide":false,
									"type":"VALUE",
									"is_linked":false,
									"from_socket":null,
									"default_value":1.0,
									"index":1
								},
								{
									"name":"Roughness",
									"enabled":true,
									"hide":false,
									"type":"VALUE",
									"is_linked":false,
									"from_socket":null,
									"default_value":0.10641398280858994,
									"index":2
								},
								{
									"name":"IOR",
									"enabled":true,
									"hide":false,
									"type":"VALUE",
									"is_linked":false,
									"from_socket":null,
									"default_value":1.5,
									"index":3
								},
								{
									"name":"Alpha",
									"enabled":true,
									"hide":false,
									"type":"VALUE",
									"is_linked":false,
									"from_socket":null,
									"default_value":1.0,
									"index":4
								},
								{
									"name":"Normal",
									"enabled":true,
									"hide":false,
									"type":"VECTOR",
									"is_linked":false,
									"from_socket":null,
									"default_value":[
										0.0,
										0.0,
										0.0
									],
									"index":5
								},
								{
									"name":"Weight",
									"enabled":false,
									"hide":false,
									"type":"VALUE",
									"is_linked":false,
									"from_socket":null,
									"default_value":0.0,
									"index":6
								},
								{
									"name":"Subsurface Weight",
									"enabled":true,
									"hide":false,
									"type":"VALUE",
									"is_linked":false,
									"from_socket":null,
									"default_value":0.0,
									"index":7
								},
								{
									"name":"Subsurface Radius",
									"enabled":true,
									"hide":false,
									"type":"VECTOR",
									"is_linked":false,
									"from_socket":null,
									"default_value":[
										1.0,
										0.20000000298023224,
										0.10000000149011612
									],
									"index":8
								},
								{
									"name":"Subsurface Scale",
									"enabled":true,
									"hide":false,
									"type":"VALUE",
									"is_linked":false,
									"from_socket":null,
									"default_value":0.05000000074505806,
									"index":9
								},
								{
									"name":"Subsurface IOR",
									"enabled":false,
									"hide":false,
									"type":"VALUE",
									"is_linked":false,
									"from_socket":null,
									"default_value":1.399999976158142,
									"index":10
								},
								{
									"name":"Subsurface Anisotropy",
									"enabled":true,
									"hide":false,
									"type":"VALUE",
									"is_linked":false,
									"from_socket":null,
									"default_value":0.0,
									"index":11
								},
								{
									"name":"Specular IOR Level",
									"enabled":true,
									"hide":false,
									"type":"VALUE",
									"is_linked":false,
									"from_socket":null,
									"default_value":0.5,
									"index":12
								},
								{
									"name":"Specular Tint",
									"enabled":true,
									"hide":false,
									"type":"RGBA",
									"is_linked":false,
									"from_socket":null,
									"default_value":[
										1.0,
										1.0,
										1.0,
										1.0
									],
									"index":13
								},
								{
									"name":"Anisotropic",
									"enabled":true,
									"hide":false,
									"type":"VALUE",
									"is_linked":false,
									"from_socket":null,
									"default_value":0.0,
									"index":14
								},
								{
									"name":"Anisotropic Rotation",
									"enabled":true,
									"hide":false,
									"type":"VALUE",
									"is_linked":false,
									"from_socket":null,
									"default_value":0.0,
									"index":15
								},
								{
									"name":"Tangent",
									"enabled":true,
									"hide":false,
									"type":"VECTOR",
									"is_linked":false,
									"from_socket":null,
									"default_value":[
										0.0,
										0.0,
										0.0
									],
									"index":16
								},
								{
									"name":"Transmission Weight",
									"enabled":true,
									"hide":false,
									"type":"VALUE",
									"is_linked":false,
									"from_socket":null,
									"default_value":0.0,
									"index":17
								},
								{
									"name":"Coat Weight",
									"enabled":true,
									"hide":false,
									"type":"VALUE",
									"is_linked":false,
									"from_socket":null,
									"default_value":0.0,
									"index":18
								},
								{
									"name":"Coat Roughness",
									"enabled":true,
									"hide":false,
									"type":"VALUE",
									"is_linked":false,
									"from_socket":null,
									"default_value":0.029999999329447746,
									"index":19
								},
								{
									"name":"Coat IOR",
									"enabled":true,
									"hide":false,
									"type":"VALUE",
									"is_linked":false,
									"from_socket":null,
									"default_value":1.5,
									"index":20
								},
								{
									"name":"Coat Tint",
									"enabled":true,
									"hide":false,
									"type":"RGBA",
									"is_linked":false,
									"from_socket":null,
									"default_value":[
										1.0,
										1.0,
										1.0,
										1.0
									],
									"index":21
								},
								{
									"name":"Coat Normal",
									"enabled":true,
									"hide":false,
									"type":"VECTOR",
									"is_linked":false,
									"from_socket":null,
									"default_value":[
										0.0,
										0.0,
										0.0
									],
									"index":22
								},
								{
									"name":"Sheen Weight",
									"enabled":true,
									"hide":false,
									"type":"VALUE",
									"is_linked":false,
									"from_socket":null,
									"default_value":0.0,
									"index":23
								},
								{
									"name":"Sheen Roughness",
									"enabled":true,
									"hide":false,
									"type":"VALUE",
									"is_linked":false,
									"from_socket":null,
									"default_value":0.5,
									"index":24
								},
								{
									"name":"Sheen Tint",
									"enabled":true,
									"hide":false,
									"type":"RGBA",
									"is_linked":false,
									"from_socket":null,
									"default_value":[
										1.0,
										1.0,
										1.0,
										1.0
									],
									"index":25
								},
								{
									"name":"Emission Color",
									"enabled":true,
									"hide":false,
									"type":"RGBA",
									"is_linked":false,
									"from_socket":null,
									"default_value":[
										1.0,
										1.0,
										1.0,
										1.0
									],
									"index":26
								},
								{
									"name":"Emission Strength",
									"enabled":true,
									"hide":false,
									"type":"VALUE",
									"is_linked":false,
									"from_socket":null,
									"default_value":0.0,
									"index":27
								},
								{
									"name":"Thin Film Thickness",
									"enabled":true,
									"hide":false,
									"type":"VALUE",
									"is_linked":false,
									"from_socket":null,
									"default_value":0.0,
									"index":28
								},
								{
									"name":"Thin Film IOR",
									"enabled":true,
									"hide":false,
									"type":"VALUE",
									"is_linked":false,
									"from_socket":null,
									"default_value":1.3300000429153442,
									"index":29
								}
							],
							"outputs":[
								{
									"name":"BSDF",
									"type":"SHADER",
									"enabled":true,
									"hide":false,
									"is_linked":true,
									"default_value":null,
									"index":0
								}
							],
							"props":{
								"bl_idname":"ShaderNodeBsdfPrincipled",
								"bl_label":"Principled BSDF",
								"bl_static_type":"BSDF_PRINCIPLED",
								"distribution":"MULTI_GGX",
								"label":"",
								"mute":false,
								"name":"Principled BSDF",
								"subsurface_method":"RANDOM_WALK",
								"type":"BSDF_PRINCIPLED"
							},
							"image":null,
							"color_ramp":null
						},
						{
							"type":"OUTPUT_MATERIAL",
							"name":"Material_Output",
							"inputs":[
								{
									"name":"Surface",
									"enabled":true,
									"hide":false,
									"type":"SHADER",
									"is_linked":true,
									"from_socket":{
										"node_name":"Principled_BSDF",
										"socket_name":"BSDF",
										"type":"SHADER",
										"socket_idx":0
									},
									"default_value":null,
									"index":0
								},
								{
									"name":"Volume",
									"enabled":true,
									"hide":false,
									"type":"SHADER",
									"is_linked":false,
									"from_socket":null,
									"default_value":null,
									"index":1
								},
								{
									"name":"Displacement",
									"enabled":true,
									"hide":false,
									"type":"VECTOR",
									"is_linked":false,
									"from_socket":null,
									"default_value":[
										0.0,
										0.0,
										0.0
									],
									"index":2
								},
								{
									"name":"Thickness",
									"enabled":true,
									"hide":false,
									"type":"VALUE",
									"is_linked":false,
									"from_socket":null,
									"default_value":0.0,
									"index":3
								}
							],
							"outputs":[],
							"props":{
								"bl_idname":"ShaderNodeOutputMaterial",
								"bl_label":"Material Output",
								"bl_static_type":"OUTPUT_MATERIAL",
								"is_active_output":true,
								"label":"",
								"mute":false,
								"name":"Material Output",
								"target":"ALL",
								"type":"OUTPUT_MATERIAL"
							},
							"image":null,
							"color_ramp":null
						}
					],
					"material_name":"barrels",
					"material_graph_hash":"410440743146697107",
					"material_graph_archetype_hash":"-3089108638782513963"
				}
			},
			"name":"barrels",
			"pbrMetallicRoughness":{
				"baseColorFactor":[
					0.413099080324173,
					0.413099080324173,
					0.413099080324173,
					1
				],
				"roughnessFactor":0.10641398280858994
			}
		}
	],
	"meshes":[
		{
			"name":"Cylinder.001",
			"primitives":[
				{
					"attributes":{
						"POSITION":0,
						"NORMAL":1,
						"TEXCOORD_0":2
					},
					"indices":3,
					"material":0
				}
			]
		}
	],
	"accessors":[
		{
			"bufferView":0,
			"componentType":5126,
			"count":758,
			"max":[
				0.05628840625286102,
				0.05628840625286102,
				0.12755736708641052
			],
			"min":[
				-0.05628840625286102,
				-0.05628840625286102,
				-0.11250878125429153
			],
			"type":"VEC3"
		},
		{
			"bufferView":1,
			"componentType":5126,
			"count":758,
			"type":"VEC3"
		},
		{
			"bufferView":2,
			"componentType":5126,
			"count":758,
			"type":"VEC2"
		},
		{
			"bufferView":3,
			"componentType":5123,
			"count":2202,
			"type":"SCALAR"
		}
	],
	"bufferViews":[
		{
			"buffer":0,
			"byteLength":9096,
			"byteOffset":0,
			"target":34962
		},
		{
			"buffer":0,
			"byteLength":9096,
			"byteOffset":9096,
			"target":34962
		},
		{
			"buffer":0,
			"byteLength":6064,
			"byteOffset":18192,
			"target":34962
		},
		{
			"buffer":0,
			"byteLength":4404,
			"byteOffset":24256,
			"target":34963
		}
	],
	"buffers":[
		{
			"byteLength":28660,
			"uri":"lmg_bullet_jacket.bin"
		}
	]
}
