{
	"asset":{
		"generator":"Khronos glTF Blender I/O v4.2.57",
		"version":"2.0"
	},
	"extensionsUsed":[
		"KHR_materials_specular"
	],
	"scene":0,
	"scenes":[
		{
			"extras":{
				"vr_landmarks":[
					{
						"type":0,
						"base_scale":1.0
					}
				],
				"BS13ExtensionProperties":{}
			},
			"name":"Scene",
			"nodes":[
				0
			]
		}
	],
	"nodes":[
		{
			"mesh":0,
			"name":"Plane",
			"rotation":[
				0.7071068286895752,
				0,
				0,
				0.7071068286895752
			]
		}
	],
	"materials":[
		{
			"alphaMode":"BLEND",
			"doubleSided":true,
			"emissiveFactor":[
				1,
				0.784196138381958,
				0.17461299896240234
			],
			"extensions":{
				"KHR_materials_specular":{
					"specularFactor":0
				}
			},
			"extras":{
				"bs13_material_graph":{
					"graph":[
						{
							"type":"TEX_COORD",
							"name":"Texture_Coordinate",
							"inputs":[],
							"outputs":[
								{
									"name":"Generated",
									"type":"VECTOR",
									"enabled":true,
									"hide":false,
									"is_linked":false,
									"default_value":[
										0.0,
										0.0,
										0.0
									],
									"index":0
								},
								{
									"name":"Normal",
									"type":"VECTOR",
									"enabled":true,
									"hide":false,
									"is_linked":false,
									"default_value":[
										0.0,
										0.0,
										0.0
									],
									"index":1
								},
								{
									"name":"UV",
									"type":"VECTOR",
									"enabled":true,
									"hide":false,
									"is_linked":true,
									"default_value":[
										0.0,
										0.0,
										0.0
									],
									"index":2
								},
								{
									"name":"Object",
									"type":"VECTOR",
									"enabled":true,
									"hide":false,
									"is_linked":false,
									"default_value":[
										0.0,
										0.0,
										0.0
									],
									"index":3
								},
								{
									"name":"Camera",
									"type":"VECTOR",
									"enabled":true,
									"hide":false,
									"is_linked":false,
									"default_value":[
										0.0,
										0.0,
										0.0
									],
									"index":4
								},
								{
									"name":"Window",
									"type":"VECTOR",
									"enabled":true,
									"hide":false,
									"is_linked":false,
									"default_value":[
										0.0,
										0.0,
										0.0
									],
									"index":5
								},
								{
									"name":"Reflection",
									"type":"VECTOR",
									"enabled":true,
									"hide":false,
									"is_linked":false,
									"default_value":[
										0.0,
										0.0,
										0.0
									],
									"index":6
								}
							],
							"props":{
								"bl_idname":"ShaderNodeTexCoord",
								"bl_label":"Texture Coordinate",
								"bl_static_type":"TEX_COORD",
								"from_instancer":false,
								"label":"",
								"mute":false,
								"name":"Texture Coordinate",
								"type":"TEX_COORD"
							},
							"image":null,
							"color_ramp":null
						},
						{
							"type":"VECT_MATH",
							"name":"Vector_Math",
							"inputs":[
								{
									"name":"Vector",
									"enabled":true,
									"hide":false,
									"type":"VECTOR",
									"is_linked":true,
									"from_socket":{
										"node_name":"Texture_Coordinate",
										"socket_name":"UV",
										"type":"VECTOR",
										"socket_idx":2
									},
									"default_value":[
										0.0,
										0.0,
										0.0
									],
									"index":0
								},
								{
									"name":"Vector",
									"enabled":true,
									"hide":false,
									"type":"VECTOR",
									"is_linked":false,
									"from_socket":null,
									"default_value":[
										-0.5,
										-0.5,
										0.0
									],
									"index":1
								},
								{
									"name":"Vector",
									"enabled":false,
									"hide":false,
									"type":"VECTOR",
									"is_linked":false,
									"from_socket":null,
									"default_value":[
										0.0,
										0.0,
										0.0
									],
									"index":2
								},
								{
									"name":"Scale",
									"enabled":false,
									"hide":false,
									"type":"VALUE",
									"is_linked":false,
									"from_socket":null,
									"default_value":1.0,
									"index":3
								}
							],
							"outputs":[
								{
									"name":"Vector",
									"type":"VECTOR",
									"enabled":true,
									"hide":false,
									"is_linked":true,
									"default_value":[
										0.0,
										0.0,
										0.0
									],
									"index":0
								},
								{
									"name":"Value",
									"type":"VALUE",
									"enabled":false,
									"hide":false,
									"is_linked":false,
									"default_value":0.0,
									"index":1
								}
							],
							"props":{
								"bl_idname":"ShaderNodeVectorMath",
								"bl_label":"Vector Math",
								"bl_static_type":"VECT_MATH",
								"label":"",
								"mute":false,
								"name":"Vector Math",
								"operation":"ADD",
								"type":"VECT_MATH"
							},
							"image":null,
							"color_ramp":null
						},
						{
							"type":"VECT_MATH",
							"name":"Vector_Math_001",
							"inputs":[
								{
									"name":"Vector",
									"enabled":true,
									"hide":false,
									"type":"VECTOR",
									"is_linked":true,
									"from_socket":{
										"node_name":"Vector_Math",
										"socket_name":"Vector",
										"type":"VECTOR",
										"socket_idx":0
									},
									"default_value":[
										0.0,
										0.0,
										0.0
									],
									"index":0
								},
								{
									"name":"Vector",
									"enabled":false,
									"hide":false,
									"type":"VECTOR",
									"is_linked":false,
									"from_socket":null,
									"default_value":[
										0.0,
										0.0,
										0.0
									],
									"index":1
								},
								{
									"name":"Vector",
									"enabled":false,
									"hide":false,
									"type":"VECTOR",
									"is_linked":false,
									"from_socket":null,
									"default_value":[
										0.0,
										0.0,
										0.0
									],
									"index":2
								},
								{
									"name":"Scale",
									"enabled":false,
									"hide":false,
									"type":"VALUE",
									"is_linked":false,
									"from_socket":null,
									"default_value":1.0,
									"index":3
								}
							],
							"outputs":[
								{
									"name":"Vector",
									"type":"VECTOR",
									"enabled":false,
									"hide":false,
									"is_linked":false,
									"default_value":[
										0.0,
										0.0,
										0.0
									],
									"index":0
								},
								{
									"name":"Value",
									"type":"VALUE",
									"enabled":true,
									"hide":false,
									"is_linked":true,
									"default_value":0.0,
									"index":1
								}
							],
							"props":{
								"bl_idname":"ShaderNodeVectorMath",
								"bl_label":"Vector Math",
								"bl_static_type":"VECT_MATH",
								"label":"",
								"mute":false,
								"name":"Vector Math.001",
								"operation":"LENGTH",
								"type":"VECT_MATH"
							},
							"image":null,
							"color_ramp":null
						},
						{
							"type":"MATH",
							"name":"Math_001",
							"inputs":[
								{
									"name":"Value",
									"enabled":true,
									"hide":false,
									"type":"VALUE",
									"is_linked":false,
									"from_socket":null,
									"default_value":1.0,
									"index":0
								},
								{
									"name":"Value",
									"enabled":true,
									"hide":false,
									"type":"VALUE",
									"is_linked":true,
									"from_socket":{
										"node_name":"Vector_Math_001",
										"socket_name":"Value",
										"type":"VALUE",
										"socket_idx":1
									},
									"default_value":0.0,
									"index":1
								},
								{
									"name":"Value",
									"enabled":false,
									"hide":false,
									"type":"VALUE",
									"is_linked":false,
									"from_socket":null,
									"default_value":0.5,
									"index":2
								}
							],
							"outputs":[
								{
									"name":"Value",
									"type":"VALUE",
									"enabled":true,
									"hide":false,
									"is_linked":true,
									"default_value":0.0,
									"index":0
								}
							],
							"props":{
								"bl_idname":"ShaderNodeMath",
								"bl_label":"Math",
								"bl_static_type":"MATH",
								"label":"",
								"mute":false,
								"name":"Math.001",
								"operation":"DIVIDE",
								"type":"MATH",
								"use_clamp":false
							},
							"image":null,
							"color_ramp":null
						},
						{
							"type":"MATH",
							"name":"Math_004",
							"inputs":[
								{
									"name":"Value",
									"enabled":true,
									"hide":false,
									"type":"VALUE",
									"is_linked":true,
									"from_socket":{
										"node_name":"Math_001",
										"socket_name":"Value",
										"type":"VALUE",
										"socket_idx":0
									},
									"default_value":0.0,
									"index":0
								},
								{
									"name":"Value",
									"enabled":true,
									"hide":false,
									"type":"VALUE",
									"is_linked":false,
									"from_socket":null,
									"default_value":0.10000000149011612,
									"index":1
								},
								{
									"name":"Value",
									"enabled":false,
									"hide":false,
									"type":"VALUE",
									"is_linked":false,
									"from_socket":null,
									"default_value":0.5,
									"index":2
								}
							],
							"outputs":[
								{
									"name":"Value",
									"type":"VALUE",
									"enabled":true,
									"hide":false,
									"is_linked":true,
									"default_value":0.0,
									"index":0
								}
							],
							"props":{
								"bl_idname":"ShaderNodeMath",
								"bl_label":"Math",
								"bl_static_type":"MATH",
								"label":"",
								"mute":false,
								"name":"Math.004",
								"operation":"MULTIPLY",
								"type":"MATH",
								"use_clamp":false
							},
							"image":null,
							"color_ramp":null
						},
						{
							"type":"MATH",
							"name":"Math_003",
							"inputs":[
								{
									"name":"Value",
									"enabled":true,
									"hide":false,
									"type":"VALUE",
									"is_linked":true,
									"from_socket":{
										"node_name":"Math_004",
										"socket_name":"Value",
										"type":"VALUE",
										"socket_idx":0
									},
									"default_value":1.0,
									"index":0
								},
								{
									"name":"Value",
									"enabled":true,
									"hide":false,
									"type":"VALUE",
									"is_linked":false,
									"from_socket":null,
									"default_value":2.0,
									"index":1
								},
								{
									"name":"Value",
									"enabled":false,
									"hide":false,
									"type":"VALUE",
									"is_linked":false,
									"from_socket":null,
									"default_value":0.5,
									"index":2
								}
							],
							"outputs":[
								{
									"name":"Value",
									"type":"VALUE",
									"enabled":true,
									"hide":false,
									"is_linked":true,
									"default_value":0.0,
									"index":0
								}
							],
							"props":{
								"bl_idname":"ShaderNodeMath",
								"bl_label":"Math",
								"bl_static_type":"MATH",
								"label":"",
								"mute":false,
								"name":"Math.003",
								"operation":"POWER",
								"type":"MATH",
								"use_clamp":false
							},
							"image":null,
							"color_ramp":null
						},
						{
							"type":"MATH",
							"name":"Math_002",
							"inputs":[
								{
									"name":"Value",
									"enabled":true,
									"hide":false,
									"type":"VALUE",
									"is_linked":true,
									"from_socket":{
										"node_name":"Math_003",
										"socket_name":"Value",
										"type":"VALUE",
										"socket_idx":0
									},
									"default_value":0.0,
									"index":0
								},
								{
									"name":"Value",
									"enabled":true,
									"hide":false,
									"type":"VALUE",
									"is_linked":false,
									"from_socket":null,
									"default_value":0.2199999988079071,
									"index":1
								},
								{
									"name":"Value",
									"enabled":false,
									"hide":false,
									"type":"VALUE",
									"is_linked":false,
									"from_socket":null,
									"default_value":0.5,
									"index":2
								}
							],
							"outputs":[
								{
									"name":"Value",
									"type":"VALUE",
									"enabled":true,
									"hide":false,
									"is_linked":true,
									"default_value":0.0,
									"index":0
								}
							],
							"props":{
								"bl_idname":"ShaderNodeMath",
								"bl_label":"Math",
								"bl_static_type":"MATH",
								"label":"",
								"mute":false,
								"name":"Math.002",
								"operation":"MULTIPLY",
								"type":"MATH",
								"use_clamp":true
							},
							"image":null,
							"color_ramp":null
						},
						{
							"type":"BSDF_PRINCIPLED",
							"name":"Principled_BSDF",
							"inputs":[
								{
									"name":"Base Color",
									"enabled":true,
									"hide":false,
									"type":"RGBA",
									"is_linked":false,
									"from_socket":null,
									"default_value":[
										0.0,
										0.0,
										0.0,
										1.0
									],
									"index":0
								},
								{
									"name":"Metallic",
									"enabled":true,
									"hide":false,
									"type":"VALUE",
									"is_linked":false,
									"from_socket":null,
									"default_value":0.0,
									"index":1
								},
								{
									"name":"Roughness",
									"enabled":true,
									"hide":false,
									"type":"VALUE",
									"is_linked":false,
									"from_socket":null,
									"default_value":0.5,
									"index":2
								},
								{
									"name":"IOR",
									"enabled":true,
									"hide":false,
									"type":"VALUE",
									"is_linked":false,
									"from_socket":null,
									"default_value":1.5,
									"index":3
								},
								{
									"name":"Alpha",
									"enabled":true,
									"hide":false,
									"type":"VALUE",
									"is_linked":true,
									"from_socket":{
										"node_name":"Math_002",
										"socket_name":"Value",
										"type":"VALUE",
										"socket_idx":0
									},
									"default_value":0.22448980808258057,
									"index":4
								},
								{
									"name":"Normal",
									"enabled":true,
									"hide":false,
									"type":"VECTOR",
									"is_linked":false,
									"from_socket":null,
									"default_value":[
										0.0,
										0.0,
										0.0
									],
									"index":5
								},
								{
									"name":"Weight",
									"enabled":false,
									"hide":false,
									"type":"VALUE",
									"is_linked":false,
									"from_socket":null,
									"default_value":0.0,
									"index":6
								},
								{
									"name":"Subsurface Weight",
									"enabled":true,
									"hide":false,
									"type":"VALUE",
									"is_linked":false,
									"from_socket":null,
									"default_value":0.0,
									"index":7
								},
								{
									"name":"Subsurface Radius",
									"enabled":true,
									"hide":false,
									"type":"VECTOR",
									"is_linked":false,
									"from_socket":null,
									"default_value":[
										1.0,
										0.20000000298023224,
										0.10000000149011612
									],
									"index":8
								},
								{
									"name":"Subsurface Scale",
									"enabled":true,
									"hide":false,
									"type":"VALUE",
									"is_linked":false,
									"from_socket":null,
									"default_value":0.05000000074505806,
									"index":9
								},
								{
									"name":"Subsurface IOR",
									"enabled":false,
									"hide":false,
									"type":"VALUE",
									"is_linked":false,
									"from_socket":null,
									"default_value":1.399999976158142,
									"index":10
								},
								{
									"name":"Subsurface Anisotropy",
									"enabled":true,
									"hide":false,
									"type":"VALUE",
									"is_linked":false,
									"from_socket":null,
									"default_value":0.0,
									"index":11
								},
								{
									"name":"Specular IOR Level",
									"enabled":true,
									"hide":false,
									"type":"VALUE",
									"is_linked":false,
									"from_socket":null,
									"default_value":0.0,
									"index":12
								},
								{
									"name":"Specular Tint",
									"enabled":true,
									"hide":false,
									"type":"RGBA",
									"is_linked":false,
									"from_socket":null,
									"default_value":[
										1.0,
										1.0,
										1.0,
										1.0
									],
									"index":13
								},
								{
									"name":"Anisotropic",
									"enabled":true,
									"hide":false,
									"type":"VALUE",
									"is_linked":false,
									"from_socket":null,
									"default_value":0.0,
									"index":14
								},
								{
									"name":"Anisotropic Rotation",
									"enabled":true,
									"hide":false,
									"type":"VALUE",
									"is_linked":false,
									"from_socket":null,
									"default_value":0.0,
									"index":15
								},
								{
									"name":"Tangent",
									"enabled":true,
									"hide":false,
									"type":"VECTOR",
									"is_linked":false,
									"from_socket":null,
									"default_value":[
										0.0,
										0.0,
										0.0
									],
									"index":16
								},
								{
									"name":"Transmission Weight",
									"enabled":true,
									"hide":false,
									"type":"VALUE",
									"is_linked":false,
									"from_socket":null,
									"default_value":0.0,
									"index":17
								},
								{
									"name":"Coat Weight",
									"enabled":true,
									"hide":false,
									"type":"VALUE",
									"is_linked":false,
									"from_socket":null,
									"default_value":0.0,
									"index":18
								},
								{
									"name":"Coat Roughness",
									"enabled":true,
									"hide":false,
									"type":"VALUE",
									"is_linked":false,
									"from_socket":null,
									"default_value":0.029999999329447746,
									"index":19
								},
								{
									"name":"Coat IOR",
									"enabled":true,
									"hide":false,
									"type":"VALUE",
									"is_linked":false,
									"from_socket":null,
									"default_value":1.5,
									"index":20
								},
								{
									"name":"Coat Tint",
									"enabled":true,
									"hide":false,
									"type":"RGBA",
									"is_linked":false,
									"from_socket":null,
									"default_value":[
										1.0,
										1.0,
										1.0,
										1.0
									],
									"index":21
								},
								{
									"name":"Coat Normal",
									"enabled":true,
									"hide":false,
									"type":"VECTOR",
									"is_linked":false,
									"from_socket":null,
									"default_value":[
										0.0,
										0.0,
										0.0
									],
									"index":22
								},
								{
									"name":"Sheen Weight",
									"enabled":true,
									"hide":false,
									"type":"VALUE",
									"is_linked":false,
									"from_socket":null,
									"default_value":0.0,
									"index":23
								},
								{
									"name":"Sheen Roughness",
									"enabled":true,
									"hide":false,
									"type":"VALUE",
									"is_linked":false,
									"from_socket":null,
									"default_value":0.5,
									"index":24
								},
								{
									"name":"Sheen Tint",
									"enabled":true,
									"hide":false,
									"type":"RGBA",
									"is_linked":false,
									"from_socket":null,
									"default_value":[
										1.0,
										1.0,
										1.0,
										1.0
									],
									"index":25
								},
								{
									"name":"Emission Color",
									"enabled":true,
									"hide":false,
									"type":"RGBA",
									"is_linked":false,
									"from_socket":null,
									"default_value":[
										1.0,
										0.784196138381958,
										0.17461299896240234,
										1.0
									],
									"index":26
								},
								{
									"name":"Emission Strength",
									"enabled":true,
									"hide":false,
									"type":"VALUE",
									"is_linked":true,
									"from_socket":{
										"node_name":"Math_003",
										"socket_name":"Value",
										"type":"VALUE",
										"socket_idx":0
									},
									"default_value":0.0,
									"index":27
								},
								{
									"name":"Thin Film Thickness",
									"enabled":true,
									"hide":false,
									"type":"VALUE",
									"is_linked":false,
									"from_socket":null,
									"default_value":0.0,
									"index":28
								},
								{
									"name":"Thin Film IOR",
									"enabled":true,
									"hide":false,
									"type":"VALUE",
									"is_linked":false,
									"from_socket":null,
									"default_value":1.3300000429153442,
									"index":29
								}
							],
							"outputs":[
								{
									"name":"BSDF",
									"type":"SHADER",
									"enabled":true,
									"hide":false,
									"is_linked":true,
									"default_value":null,
									"index":0
								}
							],
							"props":{
								"bl_idname":"ShaderNodeBsdfPrincipled",
								"bl_label":"Principled BSDF",
								"bl_static_type":"BSDF_PRINCIPLED",
								"distribution":"MULTI_GGX",
								"label":"",
								"mute":false,
								"name":"Principled BSDF",
								"subsurface_method":"RANDOM_WALK",
								"type":"BSDF_PRINCIPLED"
							},
							"image":null,
							"color_ramp":null
						},
						{
							"type":"OUTPUT_MATERIAL",
							"name":"Material_Output",
							"inputs":[
								{
									"name":"Surface",
									"enabled":true,
									"hide":false,
									"type":"SHADER",
									"is_linked":true,
									"from_socket":{
										"node_name":"Principled_BSDF",
										"socket_name":"BSDF",
										"type":"SHADER",
										"socket_idx":0
									},
									"default_value":null,
									"index":0
								},
								{
									"name":"Volume",
									"enabled":true,
									"hide":false,
									"type":"SHADER",
									"is_linked":false,
									"from_socket":null,
									"default_value":null,
									"index":1
								},
								{
									"name":"Displacement",
									"enabled":true,
									"hide":false,
									"type":"VECTOR",
									"is_linked":false,
									"from_socket":null,
									"default_value":[
										0.0,
										0.0,
										0.0
									],
									"index":2
								},
								{
									"name":"Thickness",
									"enabled":true,
									"hide":false,
									"type":"VALUE",
									"is_linked":false,
									"from_socket":null,
									"default_value":0.0,
									"index":3
								}
							],
							"outputs":[],
							"props":{
								"bl_idname":"ShaderNodeOutputMaterial",
								"bl_label":"Material Output",
								"bl_static_type":"OUTPUT_MATERIAL",
								"is_active_output":true,
								"label":"",
								"mute":false,
								"name":"Material Output",
								"target":"ALL",
								"type":"OUTPUT_MATERIAL"
							},
							"image":null,
							"color_ramp":null
						}
					],
					"material_name":"Material.001",
					"material_graph_hash":"2165152051738717966",
					"material_graph_archetype_hash":"3603864336857004483"
				}
			},
			"name":"Material.001",
			"pbrMetallicRoughness":{
				"baseColorFactor":[
					0,
					0,
					0,
					0.2199999988079071
				],
				"metallicFactor":0,
				"roughnessFactor":0.5
			}
		}
	],
	"meshes":[
		{
			"name":"Plane",
			"primitives":[
				{
					"attributes":{
						"POSITION":0,
						"NORMAL":1,
						"TEXCOORD_0":2,
						"TANGENT":3
					},
					"indices":4,
					"material":0
				}
			]
		}
	],
	"accessors":[
		{
			"bufferView":0,
			"componentType":5126,
			"count":4,
			"max":[
				1,
				0,
				1
			],
			"min":[
				-1,
				0,
				-1
			],
			"type":"VEC3"
		},
		{
			"bufferView":1,
			"componentType":5126,
			"count":4,
			"type":"VEC3"
		},
		{
			"bufferView":2,
			"componentType":5126,
			"count":4,
			"type":"VEC2"
		},
		{
			"bufferView":3,
			"componentType":5126,
			"count":4,
			"type":"VEC4"
		},
		{
			"bufferView":4,
			"componentType":5123,
			"count":6,
			"type":"SCALAR"
		}
	],
	"bufferViews":[
		{
			"buffer":0,
			"byteLength":48,
			"byteOffset":0,
			"target":34962
		},
		{
			"buffer":0,
			"byteLength":48,
			"byteOffset":48,
			"target":34962
		},
		{
			"buffer":0,
			"byteLength":32,
			"byteOffset":96,
			"target":34962
		},
		{
			"buffer":0,
			"byteLength":64,
			"byteOffset":128,
			"target":34962
		},
		{
			"buffer":0,
			"byteLength":12,
			"byteOffset":192,
			"target":34963
		}
	],
	"buffers":[
		{
			"byteLength":204,
			"uri":"muzzle_flash.bin"
		}
	]
}
